<svg height="512pt" viewBox="-65 0 512 512" width="512pt" xmlns="http://www.w3.org/2000/svg"><path d="m254.28125 230h-127.046875c-14.972656-14.972656-23.367187-23.363281-38.335937-38.335938v-117.949218c14.773437-14.773438 23.054687-23.054688 37.824218-37.824219h128.066406c14.769532 14.769531 23.054688 23.050781 37.824219 37.824219v117.949218c-14.96875 14.972657-23.363281 23.363282-38.332031 38.335938zm0 0" fill="#8ca4b7"/><path d="m254.28125 230h-126.097656v-54.921875c7.015625-7.019531 10.953125-10.957031 17.96875-17.972656h90.15625l17.972656 17.972656zm0 0" fill="#fff"/><path d="m292.617188 73.714844-37.828126-37.824219 28.390626-28.390625h18.46875l19.355468 19.359375v18.46875zm0 0" fill="#8ca4b7"/><path d="m118.898438 73.714844c14.773437-14.773438 23.054687-23.054688 37.828124-37.824219h-30c-14.773437 14.769531-23.054687 23.050781-37.828124 37.824219v117.949218l38.335937 38.335938h30l-38.335937-38.335938zm0 0" fill="#607889"/><path d="m89.847656 73.714844 37.824219-37.824219-28.390625-28.390625c-7.210938 0-11.253906 0-18.46875 0l-19.355469 19.359375v18.46875zm0 0" fill="#8ca4b7"/><path d="m333.042969 222.335938-40.425781-80v49.328124c-14.972657 14.972657-23.367188 23.363282-38.335938 38.335938h-127.046875c-14.96875-14.972656-23.363281-23.363281-38.335937-38.335938v-49.328124l-39.347657 80.015624-42.050781 50.273438v231.875h367.464844v-231.976562zm0 0" fill="#8ca4b7"/><path d="m176.152344 157.105469h-30c-7.015625 7.019531-10.953125 10.953125-17.96875 17.972656v54.921875h30v-54.921875c7.015625-7.019531 10.953125-10.953125 17.96875-17.972656zm0 0" fill="#d8d7da"/><path d="m200.855469 181.199219h-20.199219c-5.898438-5.898438-9.207031-9.207031-15.109375-15.109375v-20.964844h50.417969v20.964844c-5.898438 5.902344-9.207032 9.210937-15.109375 15.109375zm0 0" fill="#607889"/><path d="m191.230469 365.765625-108.316407-90.386719 108.316407 27.941406 108.316406-27.941406zm0 0" fill="#fff"/><g fill="#607889"><path d="m284.789062 35.890625 22.625-22.625-5.765624-5.765625h-18.46875l-28.390626 28.390625 37.828126 37.824219 15-15zm0 0"/><path d="m91.457031 45.324219v-18.464844l13.59375-13.59375-5.769531-5.765625h-18.464844l-19.359375 19.359375v18.464844l28.390625 28.390625 15-15zm0 0"/><path d="m319.246094 195.035156-26.628906-52.699218v49.328124c-14.972657 14.96875-23.367188 23.363282-38.335938 38.335938h30c13.808594-13.808594 22.023438-22.023438 34.964844-34.964844zm0 0"/><path d="m79.550781 222.351562 13.195313-26.839843c-1.234375-1.234375-2.515625-2.515625-3.847656-3.847657v-49.328124l-39.347657 80.015624-42.050781 50.273438v231.875h30v-231.875zm0 0"/></g><path d="m221.230469 303.320312 64.894531-16.742187 13.421875-11.199219-93.316406 24.070313zm0 0" fill="#d8d7da"/><path d="m126.335938 286.578125-43.421876-11.199219 108.316407 90.386719 15-12.519531zm0 0" fill="#d8d7da"/><path d="m231.210938 68.488281h-30v-15h30zm-40 0h-15v-15h15zm-25 0h-15v-15h15zm0 0" fill="#fff"/><path d="m68.574219 339.996094h15v141h-15zm0 0"/><path d="m329.929688 259.796875-138.699219 35.777344-138.695313-35.777344 138.695313 115.734375zm-138.699219 51.269531 77.9375-20.105468-77.9375 65.035156-77.9375-65.035156zm0 0"/><path d="m382.464844 328.578125v-58.773437l-43.117188-51.617188-39.230468-77.636719v-63.730469l28.386718-28.386718v-24.683594l-23.75-23.75h-24.683594l-28.386718 28.390625h-120.90625l-28.386719-28.390625h-24.679687l-23.753907 23.75v24.683594l27.441407 27.441406v64.714844l-38.179688 77.640625-43.21875 51.671875v242.097656h382.464844v-163.421875h-15v148.421875h-53.574219v-157.003906h-15v157.003906h-283.890625v-221.652344l40.882812-48.878906 25.515626-51.886719v20.1875l42.730468 42.730469h133.257813l42.730469-42.730469v-20.964843l26.617187 52.679687 40.730469 48.757813v53.335937zm-313.507813-286.359375v-12.253906l14.964844-14.964844h12.253906l20.417969 20.414062-27.222656 27.222657zm114.773438 180.28125h-48.046875v-44.316406l13.578125-13.578125h8.789062v4.589843l19.5 19.503907h6.179688zm.035156-48.800781-10.714844-10.714844v-10.359375h35.417969v10.359375l-10.71875 10.714844zm14.964844 15h5.234375l19.503906-19.503907v-4.589843h9.734375l13.578125 13.578125v44.316406h-48.050781zm86.386719-.140625-23.335938 23.335937v-39.925781l-22.367188-22.363281h-15.945312v-11.980469h-65.417969v11.980469h-15.003906l-22.363281 22.363281v40.871094l-24.285156-24.28125v-110.789063l34.378906-34.378906h120.90625l33.433594 33.429687zm7.5-125.449219-27.222657-27.21875 20.890625-20.890625h12.253906l14.964844 14.964844v12.253906zm0 0"/></svg>